<svg id="Layer_1" data-name="Layer 1" xmlns="http://www.w3.org/2000/svg" viewBox="0 0 254.0548 278.2009">
  <title>logo-image2</title>
  <g id="Skull">
    <g id="Headset">
      <path id="Headphones" d="M34.7153,201.28c-16.4691-1.5871-18.6973-3.4787-22.7581-18.697A142.1116,142.1116,0,0,0,3.35,158.6321c-4.3376-9.2062-4.9982-17.9193,1.2327-27.0815L12.321,142.767l2.3414-.8354c-.8368-11.055-3.9135-21.5772-4.9545-32.3537-3.013-31.1948,7.1547-58.5368,30.9827-77.9371C83.3741-3.1116,131.5319-8.79,182.4174,12.4071c23.5742,9.82,42.4717,25.1785,53.2554,49.0653,9.7887,21.6829,10.9386,44.0729,5.4814,67.0555-1.1788,4.9653-2.9041,10.0255-1.4282,16.5161l9.6872-13.7946c3.0926,7.323,6.6142,13.8856,3.315,21.4661-5.3423,12.2753-9.5024,24.96-13.5474,37.6974-2.49,7.8411-12.7224,13.0614-20.0145,10.2455-.0944-2.7478,2.295-4.2566,3.3326-6.4339a191.383,191.383,0,0,0,11.238-30.1578c.9473-3.3359.5141-6.6548-2.1381-9.0252-6.9676-6.2275-6.9429-13.5158-3.9629-21.558,4.9235-13.2871,7.7951-27.0224,5.7362-41.1674-4.5195-31.0489-20.7337-54.35-49.2287-67.5225C146.0847,7.2,107.4964,5.8608,69.267,25.1076,27.2905,46.2408,10.3282,87.5059,25.2342,132.1623c.7115,2.1318,1.4313,4.268,2.295,6.3406,1.9092,4.5815,1.6636,8.31-2.3614,12.0861-6.2417,5.8564-6.2,13.2925-3.2467,20.81,3.6972,9.41,7.1648,18.9271,12.0322,27.8356A17.4561,17.4561,0,0,1,34.7153,201.28Z" style="fill: #fff"/>
      <path id="Mic" d="M219.2792,209.85a3.1788,3.1788,0,0,1,3.6936,4.7128,271.6508,271.6508,0,0,1-17.1006,23.9691A340.9264,340.9264,0,0,1,180.7,266.7547c-3.6432,3.6683-7.6183,5.8758-12.99,5.1731a9.4592,9.4592,0,0,0-9.4762,4.0817c-1.2221,1.7337-2.8627,2.1811-4.8681,2.1734-9.1826-.0355-28.2181.0545-33.9049,0a3.45,3.45,0,0,1-2.5723-1.6376l-6.933-10.0528a3.1676,3.1676,0,0,1,2.4738-4.9643c7.74-.3249,21.3357.0564,27.9937,0,5.7754-.0489,11.1994-.645,16.5438,2.4885,5.9385,3.4819,17.7631-.0526,22.8774-5.1254a194.96,194.96,0,0,0,32.46-42.7409A13.1644,13.1644,0,0,1,219.2792,209.85Z" style="fill: #fff"/>
    </g>
    <path id="Skull-2" d="M219.2741,159.249c-3.2268-5.2246-6.7771-10.2495-11.613-14.118-6.5368-5.2288-6.416-12.06-5.309-19.9223,4.0176,4.3254,4.9035,10.6246,10.6582,12.6269,10.69-15.7751,11.0628-52.1273.7493-62.8748C182.4382,93.393,142.7767,116.7,111.7675,135.4143c-.8038-1.0718-.3216-.4555-1.5844-2.2065,21.0479-23.6333,62.9218-71.2338,62.5614-71.6564l-47.4319,30.374-1.6179-2.2028c11.6775-13.5137,34.4673-40.5563,34.0676-41.0212-23.0112,14.485-46.1868,28.876-69.198,43.361-.7329-.8712-.3528-.5208-1.0856-1.392C102.172,74.3755,131.2456,41.42,130.796,40.8924L88.776,68.12c-.8371-1.3093-1.1676-1.53-1.8014-2.6862l36.93-41.0551c-38.1805-.0319-70.6394,18.4194-83.983,45.4773-10.8852,22.0727-9.7839,45.9331.4,68.0531,6.394-2.3595,6.9408-9.0373,11.2617-13.1106,1.5862,8.5539.2907,15.7514-6.3593,21.3A52.8674,52.8674,0,0,0,34.35,159.3672a14.0223,14.0223,0,0,0-1.3206,12.588,172.5978,172.5978,0,0,0,23.018,43.9986c2.7549,3.8095,6.12,5.0959,10.7286,3.9274a258.6054,258.6054,0,0,1,27.46-5.8405c8.4218-1.1848,17.7167,10.9643,14.6269,19.1861-6.6682-3.0412-10.9655-12.0327-21.4809-8.1145,7.4208,8.8676,13.2121,17.8034,16.5093,27.9066,2.9626.7513,5.3748.9833,7.7561-.1066,2.1854-2.5308,1.552-7.0391,5.8548-8.1739.8862,4.7442,2.4073,8.5408,7.9116,9.2407,7.9746,1.0138,9.7566-4.8385,12.0274-11.3118a65.4245,65.4245,0,0,1,2.7712,6.5653c.8454,2.9,2.4917,4.4065,5.5844,4.5359,3.3287.1392,4.6112-1.9133,5.516-4.5706A57.3125,57.3125,0,0,1,159.0194,234.7c2.1273-3.0162,4.3594-5.9584,7.0694-9.6482-10.6818-4.03-15.1592,6.176-23.0963,8.7832,1.3564-4.0679,2.4127-7.7661,3.814-11.3286,2.9937-7.6106,5.3184-9.3352,13.3526-8.1123,8.9953,1.3694,17.893,3.4492,26.7713,5.49,4.6385,1.0661,8.0166-.2107,10.7419-3.9917a167.9506,167.9506,0,0,0,22.8107-43.6755A14.5448,14.5448,0,0,0,219.2741,159.249ZM117.5968,213.22c2.9644-9.0169,9.0917-26.33,9.6139-26.4214,2.9087,8.837,6.2,18.1783,9.461,28.085C130.2308,210.2353,124.3348,209.9608,117.5968,213.22ZM197.968,170.479c-2.7623,12.9447-9.3808,22.9955-21.8236,28.5752-9.6792,4.34-18.86,2.5511-27.1036-5.3061-4.0624-3.8718-7.8756-8.0483-12.22-11.57-6.6924-5.4257-14.2119-5.085-20.8071.532a73.8577,73.8577,0,0,0-7.5777,7.2276c-17.6449,20.0015-35.867,11.1172-46.9664-4.6961-4.1892-5.9686-5.9115-12.8824-6.4646-20.073-.2293-2.9814,1.1326-5.1814,3.7663-6.7594,11.7726-7.0534,23.0863-4.0834,34.1407,1.6693,5.9691,3.1062,11.6325,6.7955,17.4815,10.1385,7.3376,4.1939,11.2636,2.6325,13.7258-5.3895.8335-2.7155,1.5763-5.4589,2.7365-9.4985,1.3559,4.5668,2.2838,7.9248,3.3518,11.2375,1.8445,5.7218,5.3472,7.282,10.6531,4.484,6.62-3.4906,13.05-7.34,19.66-10.849,8.667-4.6008,17.6845-7.4343,27.6832-4.99C196.8809,157.3318,199.833,161.74,197.968,170.479Z" style="fill: #fff"/>
  </g>
</svg>
