<svg id="Layer_1" data-name="Layer 1" xmlns="http://www.w3.org/2000/svg" viewBox="0 0 267.3871 458.1013">
  <title>silphsquad</title>
  <g id="Skull">
    <g id="Headset">
      <path fill="white" id="Headphones" d="M40.8312,293.7106c-16.4691-1.5871-18.6974-3.4787-22.7581-18.697a142.1248,142.1248,0,0,0-8.6075-23.9505c-4.3376-9.2062-4.9982-17.9193,1.2327-27.0815l7.7386,11.2164,2.3414-.8354c-.8368-11.055-3.9136-21.5772-4.9545-32.3537-3.013-31.1948,7.1547-58.5368,30.9827-77.9371C89.49,89.3194,137.6478,83.6412,188.5333,104.8381c23.5742,9.82,42.4717,25.1785,53.2554,49.0653,9.7887,21.6829,10.9386,44.0729,5.4814,67.0555-1.1789,4.9653-2.9041,10.0255-1.4282,16.5161l9.6872-13.7946c3.0926,7.323,6.6142,13.8856,3.315,21.4661-5.3423,12.2753-9.5024,24.96-13.5474,37.6974-2.49,7.8412-12.7224,13.0614-20.0145,10.2455-.0944-2.7478,2.2949-4.2566,3.3326-6.4339a191.3892,191.3892,0,0,0,11.238-30.1578c.9473-3.3359.514-6.6548-2.1381-9.0252-6.9676-6.2275-6.9429-13.5158-3.9629-21.558,4.9235-13.2871,7.7951-27.0224,5.7362-41.1674-4.5195-31.0489-20.7337-54.35-49.2287-67.5225-38.0587-17.5938-76.647-18.9328-114.8764.314C33.4064,138.6718,16.4441,179.9369,31.35,224.5933c.7116,2.1318,1.4314,4.268,2.2951,6.3406,1.9092,4.5815,1.6635,8.31-2.3614,12.0861-6.2417,5.8564-6.2,13.2925-3.2467,20.81,3.6972,9.41,7.1648,18.9271,12.0322,27.8356A17.4821,17.4821,0,0,1,40.8312,293.7106Z"/>
      <path fill="white" id="Mic" d="M225.3951,302.2812a3.1788,3.1788,0,0,1,3.6936,4.7128,271.67,271.67,0,0,1-17.1006,23.9691,340.919,340.919,0,0,1-25.1723,28.2226c-3.6432,3.6683-7.6184,5.8758-12.99,5.1731a9.4593,9.4593,0,0,0-9.4762,4.0818c-1.2221,1.7337-2.8627,2.1811-4.8681,2.1733-9.1826-.0355-28.2181.0545-33.9049,0a3.4491,3.4491,0,0,1-2.5723-1.6375l-6.933-10.0528a3.1677,3.1677,0,0,1,2.4738-4.9644c7.74-.3249,21.3357.0565,27.9937,0,5.7754-.0489,11.1994-.645,16.5438,2.4886,5.9385,3.4819,17.7631-.0526,22.8774-5.1254a194.9651,194.9651,0,0,0,32.46-42.7409A13.1638,13.1638,0,0,1,225.3951,302.2812Z"/>
    </g>
    <path fill="white" id="Skull-2" data-name="Skull" d="M225.39,251.68c-3.2268-5.2246-6.7771-10.2495-11.613-14.118-6.5368-5.2288-6.416-12.06-5.309-19.9223,4.0176,4.3254,4.9035,10.6246,10.6582,12.6269,10.69-15.7751,11.0628-52.1273.7493-62.8748-31.3214,18.4322-70.9829,41.7387-101.9921,60.4535-.8038-1.0718-.3216-.4555-1.5844-2.2065,21.0479-23.6333,62.9218-71.2338,62.5614-71.6564l-47.4319,30.374-1.6179-2.2028c11.6775-13.5137,34.4673-40.5563,34.0676-41.0212-23.0112,14.485-46.1868,28.876-69.198,43.361-.7329-.8712-.3528-.5208-1.0856-1.392,14.6933-16.2949,43.7669-49.2509,43.3173-49.778l-42.02,27.2279c-.8371-1.3093-1.1676-1.53-1.8014-2.6862L130.02,116.81c-38.1805-.0319-70.6394,18.4194-83.983,45.4773-10.8852,22.0727-9.7839,45.9331.4,68.0531,6.394-2.3595,6.9408-9.0373,11.2617-13.1106,1.5862,8.5539.2907,15.7514-6.3593,21.3a52.8689,52.8689,0,0,0-10.8733,13.2684,14.0228,14.0228,0,0,0-1.3206,12.588,172.598,172.598,0,0,0,23.018,43.9986c2.7549,3.8095,6.12,5.0959,10.7286,3.9274a258.5983,258.5983,0,0,1,27.46-5.8405c8.4218-1.1848,17.7167,10.9643,14.6269,19.1861-6.6682-3.0412-10.9655-12.0327-21.4809-8.1145,7.4208,8.8676,13.2121,17.8034,16.5093,27.9066,2.9626.7513,5.3748.9833,7.7561-.1066,2.1854-2.5308,1.552-7.0391,5.8548-8.1739.8862,4.7442,2.4073,8.5408,7.9116,9.2407,7.9746,1.0138,9.7566-4.8385,12.0274-11.3118a65.404,65.404,0,0,1,2.7712,6.5653c.8454,2.9,2.4917,4.4065,5.5844,4.5359,3.3288.1392,4.6112-1.9133,5.516-4.5706a57.3136,57.3136,0,0,1,7.7063-14.4983c2.1273-3.0162,4.3594-5.9584,7.0694-9.6482-10.6818-4.03-15.1592,6.176-23.0963,8.7832,1.3564-4.0679,2.4127-7.7661,3.814-11.3286,2.9937-7.6106,5.3184-9.3352,13.3526-8.1123,8.9953,1.3694,17.8931,3.4492,26.7713,5.49,4.6385,1.0661,8.0166-.2107,10.7419-3.9917a167.9456,167.9456,0,0,0,22.8107-43.6755A14.5446,14.5446,0,0,0,225.39,251.68ZM123.7126,305.6511c2.9644-9.0169,9.0918-26.33,9.6139-26.4214,2.9087,8.837,6.2,18.1783,9.461,28.085C136.3467,302.6663,130.4507,302.3918,123.7126,305.6511ZM204.0839,262.91c-2.7623,12.9447-9.3808,22.9955-21.8236,28.5752-9.6792,4.34-18.86,2.5511-27.1036-5.3061-4.0624-3.8718-7.8756-8.0483-12.22-11.5705-6.6924-5.4257-14.2119-5.085-20.8071.532a73.8482,73.8482,0,0,0-7.5777,7.2276c-17.6449,20.0015-35.867,11.1172-46.9664-4.6961-4.1892-5.9686-5.9115-12.8824-6.4646-20.073-.2293-2.9814,1.1326-5.1814,3.7663-6.7594,11.7726-7.0534,23.0863-4.0834,34.1407,1.6693,5.9691,3.1062,11.6325,6.7955,17.4815,10.1385,7.3376,4.1939,11.2636,2.6325,13.7258-5.3895.8335-2.7155,1.5763-5.4589,2.7365-9.4985,1.3559,4.5668,2.2838,7.9248,3.3518,11.2375,1.8445,5.7218,5.3472,7.282,10.6531,4.484,6.62-3.4906,13.05-7.34,19.66-10.849,8.667-4.6008,17.6845-7.4343,27.6832-4.99C202.9968,249.7628,205.9489,254.1705,204.0839,262.91Z"/>
  </g>
  <g id="Squad">
    <path fill="white" id="S" d="M1.4276,442.2309l8.068-10.8436c4.0121,1.9253,7.561,4.0349,11.6852,4.7476,6.1993,1.0713,10.48-.76,12.4391-5.6774,2.1978-5.5167-3.8033-10.3123-7.5984-13.3436-6.62-5.2879-10.6781-6.3889-16.8649-12.417-6.5623-6.394-7.7838-20.3861,2.5774-26.8362,10.6115-5.1675,30.4144-.2809,37.9063,9.607l-5.8592,8.5514S29.59,386.162,23.6122,391.3532c-7.0425,6.1159,7.0885,12.5191,12.0235,15.2182,17.6832,9.6715,18.7611,32.3569,1.101,42.55C28.616,453.8088,7.674,448.805,1.4276,442.2309Z"/>
    <path fill="white" id="U" d="M111.6174,386.7072l15.2335-1.7946c0,6.3992.0043,12.579-.0013,18.7587-.0049,5.493.1073,10.99-.0689,16.4778-.1659,5.1669,1.9867,8.3221,7.1162,9.3641,6.4942,1.3191,11.0605-.6308,13.163-5.6572a21.7886,21.7886,0,0,0,1.35-8.8177q-.1593-14.4153-.3014-28.8308c-.0135-1.3373-.0019-2.6749-.0019-4.42l15.2884,3.7921c-.3185,13.8863.6214,27.6484-1.2206,41.2581-1.4477,10.6964-8.1624,16.4827-18.9645,17.3235a60.9338,60.9338,0,0,1-13.4334-.367c-11.8084-1.7254-17.5775-7.9621-17.8517-22.2786C111.7174,410.6774,111.499,387.87,111.6174,386.7072Z"/>
    <path fill="white" id="D" d="M256.3161,392.1145c-10.3369-12.0894-24.6785-11.15-39.2638-9.7882.5722,24.275,1.1354,48.1646,1.7076,72.439,14.0878-.4005,24.12-2.68,34.2516-9.7629,4.5008-3.1462,8.1715-7.1521,9.949-12.3679C267.9462,418.0041,266.4289,403.9419,256.3161,392.1145Zm-23.4684,44.4588c0-12.2956.1-26.807.1-38.8537,9.352-.4359,18.0508,7.0463,17.5065,19.3943C250.03,426.737,244.407,435.4725,232.8477,436.5733Z"/>
    <path fill="white" id="Q" d="M107.5343,398.2973c-3.8054-11.5259-17.8755-19.43-31.5766-17.738-13.3994,1.6543-24.3564,12.8918-25.1392,25.7829-.97,15.973,8.09,26.1338,28.0628,31.0366v8.2271c5.1672-.2288,10.8329-.8392,15.8969-1.0635-1.1693-3.4738-1.9355-7.1336-2.9652-10.193C108.4655,425.3043,112.753,414.1032,107.5343,398.2973ZM87.9211,420.0791c-.9267-3.3359-2.0144-7.7318-2.0144-7.7318l-9.413,1.9041a64.5946,64.5946,0,0,1,.6783,7.4957c-5.1792-2.8319-8.4953-7.9283-8.1889-13.1664.3543-6.0544,5.4488-10.9628,11.4671-11.7248,5.5893-.7075,11.515,3.0642,13.5578,8.63C95.9425,410.7568,93.0553,416.4827,87.9211,420.0791Z"/>
    <path fill="white" id="A" d="M196.6516,380.1382c-4.3583.3847-8.3193.7343-12.7708,1.1274-3.9915,16.4515-7.9245,32.6617-11.85,48.84l-10.4218,2.9112c.4769,1.8393.8408,3.2431,1.2182,4.6984l7.0448.5995c-.385,2.2616-.7061,4.1473-1.0679,6.2726l8.5026,1.2624c1.0346-2.4865,1.9332-4.6465,2.9422-7.0717l19.4889,1.1656c.57,2.2867,1.0717,4.3024,1.6674,6.6939l14.9529-3.0929C209.6975,422.1128,203.2,401.2059,196.6516,380.1382ZM185.033,428.2335l6.1159-21.498,6.3011,18.1621Z"/>
  </g>
  <g id="Silph">
    <path fill="white" id="S-2" data-name="S" d="M22.2078,73.2955l8.0357-10.875c2.5747,1.1784,5.0036,2.3568,7.4859,3.4094a17.2467,17.2467,0,0,0,9.891,1.3238c3.9607-.7063,7.0048-2.8681,8.421-6.64,1.397-3.7206-.321-6.7921-2.9049-9.4594a30.5023,30.5023,0,0,0-8.3929-6.1961A62.5176,62.5176,0,0,1,27.8391,32.631c-5.76-5.8512-5.0217-16.9107,1.6025-21.8383,5.3956-4.0136,11.5426-4.4777,17.88-3.5912,8.7917,1.23,17.0067,3.7741,23.2886,11.2158l-5.9115,8.7733c-7.967-3.6924-14.89-10.4136-24.52-7.0043-1.0563,4.4158,1.2988,6.778,3.6739,8.94,4.1807,3.8057,9.1181,6.5256,14.07,9.1887,11.4032,6.133,15.1146,15.45,10.6905,26.8592-5.754,14.838-14.8925,20.4088-28.0463,16.9491A56.1852,56.1852,0,0,1,22.2078,73.2955Z"/>
    <path fill="white" id="L" d="M107.0235,78.3448c.8333-21.6453,1.6527-42.93,2.4927-64.7474l14.1643,1.5473c-1.0241,15.4124-2.0393,30.6906-3.0839,46.4109L148.05,58.8663c.3744,5.9022.7321,11.5408,1.1287,17.794Z"/>
    <g id="I">
      <path fill="white" id="line" d="M82.5213,78.6945v-45.75l14.0261,1.0582V78.6945Z"/>
      <path fill="white" id="dot" d="M88.0138,25.6248c-3.1933-.5037-7.0025-1.2013-7.4367-5.7562-.41-4.3052,3.548-7.5564,8.776-7.4531,3.9832.0786,7.546,1.2419,7.9285,6.0356C97.593,22.3532,93.5056,25.5584,88.0138,25.6248Z"/>
    </g>
    <path fill="white" id="H" d="M214.6477,77.072l-14.98,1.0728c-.425-7.7256-.8324-15.1323-1.26-22.912l-7.4805.5047c-1.1706-1.3766-1.0779-2.8582-1.05-4.7177l7.5633-2.5285V19.0035l13.1925-1.6322c.648,8.82,1.2754,17.3591,1.9488,26.5255l16.4771-4.9106V3.1811l14.0075-.9572V81.1924H228.18V51.6276l-14.8986,1.701C213.7419,61.3361,214.1881,69.0878,214.6477,77.072Z"/>
    <path fill="white" id="P" d="M191.5819,27.249c-1.5982-7.5919-5.77-13.5384-13.7577-15.2189-12.8537-2.704-25.4668.2444-38.4415,2.1292.66,5.7244,1.27,11.0089,1.909,16.55,1.4442-.1914,2.5113-.3253,3.576-.476,1.1915-.1687,2.3807-.3526,4.1181-.6113,2.6737,17.2922,5.3,34.2767,7.9566,51.4584,3.215-.1994,7.5542-.7287,10.5975-.9173,0-7.4836-.8154-14.4375-.8154-21.8539,6.2063-1.9379,11.6619-4.0678,16.8331-8.1558C191.0767,44.21,193.5007,36.3646,191.5819,27.249ZM177.58,33.43c-1.7073,5.0166-7.7563,7.4285-12.649,8.407a99.1392,99.1392,0,0,1-2.4463-14.0256c3.6459-.8642,10.114-1.2927,13.3376.9855A4.1021,4.1021,0,0,1,177.58,33.43Z"/>
  </g>
</svg>
